{"title":"The.Girl.from.the.Naked.Eye.2011.BRRip.XviD-OCW","uid":6892545,"size":851059244,"categoryP":"video","categoryS":"movies","magnet":"?xt=urn:btih:ba8a22aa5b2b1a00ec73f8359fda9a35da79d0a6&amp;dn=The.Girl.from.the.Naked.Eye.2011.BRRip.XviD-OCW&amp;tr=udp%3A%2F%2Ftracker.openbittorrent.com%3A80&amp;tr=udp%3A%2F%2Fopen.demonii.com%3A1337&amp;tr=udp%3A%2F%2Ftracker.coppersurfer.tk%3A6969&amp;tr=udp%3A%2F%2Fexodus.desync.com%3A6969","seeders":0,"leechers":1,"uploader":"TvTeam","files":4,"time":1324068789,"description":". \n &lt;a href=&quot;\nhttp://www.torrenting.com&quot; rel=&quot;nofollow&quot; target=&quot;_NEW&quot;&gt;\nhttp://www.torrenting.com&lt;/a&gt;          :     Once &amp; For all ;)\n\n\n               www . Torrenting . Com \n\n(((((((((((((= Enjoy No RAR releases =))))))))))))))))))))\n\n\n...................................NFO:....................................\n\n.http://www.imdb.com/title/tt1079360/\n\nGeneral\nComplete name                    : The.Girl.from.the.Naked.Eye.2011.BRRip.XviD-OCW.avi\nFormat                           : AVI\nFormat/Info                      : Audio Video Interleave\nFile size                        : 812 MiB\nDuration                         : 1h 23mn\nOverall bit rate                 : 1 356 Kbps\nWriting library                  : MPlayer\n\nVideo\nID                               : 0\nFormat                           : MPEG-4 Visual\nFormat profile                   : Advanced Simple@L5\nFormat settings, BVOP            : 2\nFormat settings, QPel            : No\nFormat settings, GMC             : No warppoints\nFormat settings, Matrix          : Default (H.263)\nCodec ID                         : XVID\nCodec ID/Hint                    : XviD\nDuration                         : 1h 23mn\nBit rate                         : 1 088 Kbps\nWidth                            : 720 pixels\nHeight                           : 400 pixels\nDisplay aspect ratio             : 16:9\nFrame rate                       : 23.976 fps\nColor space                      : YUV\nChroma subsampling               : 4:2:0\nBit depth                        : 8 bits\nScan type                        : Progressive\nCompression mode                 : Lossy\nBits/(Pixel*Frame)               : 0.158\nStream size                      : 651 MiB (80%)\nWriting library                  : XviD 63\n\nAudio\nID                               : 1\nFormat                           : MPEG Audio\nFormat version                   : Version 1\nFormat profile                   : Layer 3\nMode                             : Joint stereo\nCodec ID                         : 55\nCodec ID/Hint                    : MP3\nDuration                         : 1h 23mn\nBit rate mode                    : Constant\nBit rate                         : 256 Kbps\nChannel(s)                       : 2 channels\nSampling rate                    : 44.1 KHz\nCompression mode                 : Lossy\nStream size                      : 153 MiB (19%)\nAlignment                        : Aligned on interleaves\nInterleave, duration             : 26 ms (0.63 video frame)\nInterleave, preload duration     : 809 ms\nWriting library                  : LAME3.98.4","torrent":{"xt":"urn:btih:ba8a22aa5b2b1a00ec73f8359fda9a35da79d0a6","amp;dn":"The.Girl.from.the.Naked.Eye.2011.BRRip.XviD-OCW","amp;tr":["udp%3A%2F%2Ftracker.openbittorrent.com%3A80","udp%3A%2F%2Fopen.demonii.com%3A1337","udp%3A%2F%2Ftracker.coppersurfer.tk%3A6969","udp%3A%2F%2Fexodus.desync.com%3A6969"],"infoHash":"ba8a22aa5b2b1a00ec73f8359fda9a35da79d0a6","infoHashBuffer":{"type":"Buffer","data":[186,138,34,170,91,43,26,0,236,115,248,53,159,218,154,53,218,121,208,166]},"announce":[],"urlList":[]}}